<?xml version="1.0" encoding="UTF-8"?><svg id="Layer_1" xmlns="http://www.w3.org/2000/svg" viewBox="0 0 510.98 152.08"><defs><style>.cls-1{fill:#fff;}</style></defs><polygon class="cls-1" points="510.98 38.02 510.98 53.32 507.16 53.32 507.16 56.91 503.33 56.91 503.33 64.56 499.5 64.56 499.51 72.21 495.68 72.22 495.68 83.69 503.33 83.69 503.33 87.52 499.51 87.5 499.5 91.34 495.68 91.36 495.68 129.35 491.85 129.37 491.85 132.95 488.03 132.95 488.03 136.77 484.2 136.77 484.2 132.95 480.38 132.95 480.38 129.37 476.55 129.35 476.55 91.36 472.96 91.33 472.96 83.69 476.55 83.68 476.55 68.39 472.96 68.38 472.97 60.74 469.14 60.74 469.14 56.91 465.31 56.91 465.31 49.5 461.49 49.5 461.49 41.85 465.31 41.84 465.31 34.19 469.14 34.19 469.14 30.37 472.97 30.37 472.96 26.54 476.55 26.54 476.55 18.89 480.38 18.89 480.37 11.48 484.2 11.47 484.2 0 488.03 0 488.03 7.65 491.86 7.65 491.85 15.3 495.68 15.31 495.68 26.54 499.51 26.52 499.51 41.84 491.86 41.85 491.85 45.67 480.38 45.67 480.38 41.84 476.55 41.85 476.55 56.91 488.02 56.91 488.03 53.32 484.2 53.32 484.21 49.5 503.33 49.5 503.33 41.85 507.16 41.85 507.16 38.02 510.98 38.02"/><polygon class="cls-1" points="87.75 152.08 80.1 152.08 80.1 148.25 76.28 148.25 76.28 144.42 72.45 144.43 72.45 140.6 76.28 140.6 76.28 136.77 80.1 136.77 80.1 132.95 83.93 132.94 83.93 114.06 80.1 114.05 80.1 117.88 72.45 117.88 72.45 121.71 64.8 121.71 64.8 117.88 60.96 117.88 60.98 114.05 57.15 114.07 57.15 110.24 53.32 110.21 53.32 64.54 49.49 64.58 49.51 60.74 68.63 60.73 68.62 102.56 72.45 102.59 72.45 106.41 80.1 106.41 80.1 102.59 83.93 102.56 83.93 60.73 99.23 60.74 99.23 136.74 95.4 136.78 95.41 144.42 91.58 144.42 91.58 148.25 87.75 148.25 87.75 152.08"/><polygon class="cls-1" points="0 117.88 0 45.67 41.83 45.67 41.85 49.5 45.67 49.5 45.67 60.74 19.13 60.73 19.13 76.04 45.67 76.04 45.67 83.69 41.85 83.69 41.84 91.34 19.13 91.34 19.13 121.69 15.3 121.71 15.3 125.54 11.48 125.53 11.48 129.36 7.65 129.36 7.65 121.71 3.82 121.71 3.83 117.88 0 117.88"/><path class="cls-1" d="M400.51,106.41v7.65s-7.65,0-7.65,0v3.83s-7.65,0-7.65,0v3.83s-7.65,0-7.65,0v-3.83s-11.49,0-11.49,0v3.82s-11.47,0-11.47,0V49.52s-3.83-.04-3.83-.04v-7.64s19.13,0,19.13,0v22.72s7.65,0,7.65,0v-3.83s15.3,0,15.3,0v3.83s3.83,0,3.83,0v3.83s3.83,0,3.83,0v7.64s3.59.02,3.59.02v30.34s-3.59.02-3.59.02ZM385.21,106.4v-3.83s3.83,0,3.83,0v-11.26s3.82.07,3.82.07v-3.87s-3.82.01-3.82.01v-11.49s-11.47,0-11.47,0v3.83s-3.83,0-3.83,0v3.82s-3.83,0-3.83,0v18.88s3.83,0,3.83,0v3.82s11.48,0,11.48,0Z"/><path class="cls-1" d="M164.03,95.05v7.53s3.83,0,3.83,0v3.83s11.47,0,11.47,0v-3.83s15.07,0,15.07,0v11.47s-3.83,0-3.83,0v3.83s-11.24,0-11.24,0v3.82s-11.47,0-11.47,0v-3.83s-7.65,0-7.65,0v-3.83s-3.83,0-3.83,0v-3.83s-3.83,0-3.83,0v-3.83s-3.83,0-3.83,0v-11.47s-3.83,0-3.83,0v-7.42s3.83,0,3.83,0v-15.3s3.83,0,3.83,0v-3.83s3.83,0,3.83,0v-3.83s7.65,0,7.65,0v-3.83s18.88,0,18.88,0v3.83s7.66,0,7.66,0v3.83s3.83,0,3.83,0v11.48s3.83-.01,3.83-.01v-3.82s3.83,0,3.83,0v-7.65s3.83,0,3.83,0v-3.83s3.82,0,3.82,0v-3.82s11.47-.01,11.47-.01v3.84s3.83,0,3.83,0v7.65s-3.83,0-3.83,0v3.83s-3.83,0-3.83,0v7.65s3.83,0,3.83,0v3.83s3.83,0,3.83,0v7.41s3.82,0,3.82,0v15.29s-3.83,0-3.83,0v3.83s-3.83,0-3.83,0v3.83s-3.82,0-3.82,0v3.83s-7.65,0-7.65,0v-3.83s-3.83,0-3.83,0v-7.67s3.83.02,3.83.02l-.02-3.83h3.84s0-7.65,0-7.65h-3.83s0-3.83,0-3.83h-3.83s0-7.41,0-7.41h-3.83s0-7.65,0-7.65h-3.83s0,7.65,0,7.65h-3.83s0,3.83,0,3.83h-11.47s0,3.59,0,3.59h-11.23s0,3.83,0,3.83h-3.83s0-3.83,0-3.83h-3.7s-.12.12-.12.12ZM171.7,83.69l-.02-3.82h7.66s0-3.83,0-3.83h-11.47s0,3.83,0,3.83h-3.83s0,3.83,0,3.83h7.66ZM164.03,94.58v-3.23s-3.82-.02-3.82-.02v3.61s3.72-.03,3.72-.03c0,.02.1-.27.1-.34Z"/><path class="cls-1" d="M442.36,102.58h7.65s0,3.82,0,3.82h3.83s0,11.48,0,11.48h-11.48s0,3.83,0,3.83h-11.48s0-3.83,0-3.83h-7.65s0-3.83,0-3.83h-3.83s0-3.82,0-3.82h-3.83s0-3.83,0-3.83h-3.83s0-7.65,0-7.65h-3.83s0-15.06,0-15.06h3.83s0-11.48,0-11.48h3.83s0-3.83,0-3.83h3.83s0-3.83,0-3.83h3.82s.01-3.83.01-3.83h22.94s.01,3.83.01,3.83h7.65s0,3.83,0,3.83h3.83s0,15.3,0,15.3l3.82-.02v3.84s-3.83,0-3.83,0v3.83s-11.47,0-11.47,0v3.59s-11.48,0-11.48,0v3.83s-3.83,0-3.83,0v-3.83s-3.83,0-3.83,0v-3.59s-3.83,0-3.83,0v7.41s3.83,0,3.83,0v3.83s3.82,0,3.82,0v3.83s11.47,0,11.47,0v-3.83ZM434.71,83.69v-3.82s7.65,0,7.65,0v-3.83s-11.48,0-11.48,0v3.83s-3.83,0-3.83,0v3.83s7.66,0,7.66,0Z"/><polygon class="cls-1" points="274.5 106.4 278.33 106.41 278.33 114.06 274.5 114.06 274.5 117.88 266.85 117.88 266.84 121.71 251.79 121.71 251.78 117.88 244.13 117.88 244.13 114.06 240.31 114.06 240.31 110.21 236.48 110.23 236.49 102.58 232.66 102.57 232.66 76.05 236.48 76.03 236.48 68.38 240.31 68.41 240.31 64.56 247.96 64.56 247.97 60.73 270.67 60.73 270.68 64.56 274.5 64.56 274.5 68.39 278.33 68.39 278.33 76.04 274.5 76.04 274.5 79.87 263.03 79.86 263.02 76.04 251.79 76.04 251.78 79.86 247.96 79.87 247.96 98.75 251.79 98.76 251.78 102.58 255.61 102.58 255.61 106.41 266.85 106.41 266.85 102.58 274.5 102.58 274.5 106.4"/><polygon class="cls-1" points="324.24 76.03 316.59 76.04 316.58 79.87 308.94 79.86 308.93 83.69 301.28 83.69 301.28 117.87 297.46 117.89 297.45 121.71 285.98 121.71 285.98 60.74 301.28 60.73 301.28 68.38 305.11 68.39 305.11 64.56 312.76 64.56 312.76 60.73 320.41 60.73 320.41 64.56 324.24 64.56 324.24 76.03"/><polygon class="cls-1" points="137.27 76.04 137.24 79.87 129.6 79.86 129.6 83.69 125.77 83.69 125.77 87.51 121.95 87.53 121.95 117.87 118.12 117.89 118.12 121.71 106.88 121.71 106.88 60.74 121.95 60.73 121.95 72.21 125.77 72.21 125.77 64.56 133.42 64.56 133.43 60.73 141.1 60.73 141.07 64.57 144.9 64.53 144.9 76.04 137.27 76.04"/><polygon class="cls-1" points="335.47 129.36 335.47 121.71 331.65 121.71 331.65 117.88 328.06 117.88 328.06 110.24 331.65 110.22 331.65 91.35 328.06 91.33 328.06 60.73 343.13 60.73 343.13 106.4 346.95 106.41 346.95 117.88 343.13 117.88 343.13 121.71 339.3 121.71 339.3 129.36 335.47 129.36"/><polygon class="cls-1" points="335.48 53.32 331.65 53.32 331.65 49.5 328.06 49.5 328.06 45.67 331.65 45.67 331.65 41.84 335.48 41.85 335.47 38.02 339.3 38.02 339.3 41.84 343.13 41.85 343.13 53.32 339.3 53.32 339.3 56.91 335.47 56.91 335.48 53.32"/><rect class="cls-1" x="503.33" y="30.37" width="3.83" height="3.83" transform="translate(-.04 .56) rotate(-.06)"/></svg>