<?xml version="1.0" encoding="UTF-8"?><svg id="Layer_1" xmlns="http://www.w3.org/2000/svg" viewBox="0 0 512.62 156.25"><defs><style>.cls-1{fill:#fff;}</style></defs><path class="cls-1" d="M512.47,46.28c-.11-1.28-.28-2.48-.48-3.46-.01-.22-.06-.44-.15-.68,0,0,0-.01,0-.01h0c-.09-.26-.22-.53-.39-.83-.8-1.25-1.26-2.53-1.64-3.92-.48-1.17-1.05-2.19-1.75-3.28-.22-.5-3.09-4.31-2.91-2.72.08.69.53,1.34.85,1.95.46.81.44,2.02.67,2.97.33,1.45.84,3.02,1.08,4.44.04,2.2-.09,4.44-1.05,6.5-.55,1.35-1.58,2.48-2.2,3.74-.43,1.37-1.29,1.89-2.71,2.22-2.53,1.38-5.64,2.27-8.01.07-.59-.45-1.19-.94-1.87-1.24-2.27-1.21-5.43,1.43-4.08,3.81,3.21,3.62-.58,7.12-4.52,6.75-3.1-.41-5.32-3.3-6.35-6.08-1.25-3.38-.62-7.46,1.95-10.08.51-.56,1.85-1.92,1.57-.34-.25,1.36-.36,2.79.03,4.12.25.81.81,2.63,1.37,1.6,1.46-5.65,7.96-2.99,12.19-4.14,3.76-.52,6.41-3.85,7-7.46.52-2.15.03-4.47-.33-6.65-.35-3.66-2.46-6.7-3.89-10-1.16-2.73-2.75-5.45-3.61-8.26-.41-.94-.8-1.13-.92-2.12-.44-1.95-1.01-4.25-1.64-6.19-.23-1-.49-2.08-1.05-2.91-.31-1.12-.09-2.44-.56-3.55-.88-1.72-1.27,1.45-1.13,2.06.11,1.04-.6,2-.77,3.06-.9,3.03-1.65,6.22-2.72,9.22-2.6,7.23-6.12,13.27-11.22,19.1-2.24,2.79-5.13,5.14-6.81,8.34-2.77,5.24-2.53,10.67.54,15.72,2.06,3.86,5.26,6.48,7.7,10.54,1.22,2,2.25,4.32,2.96,6.55.9,2.76,1.15,5.61,1.45,8.49.04,1.3.71,3.58-1.17,3.76-1.03.16-2.38-.06-3.41.17-.61.16-.58.88-.59,1.41.14,1.22-.29,4.39.35,5.31,1.46.82,3.65-.23,5.11.79.52.54.23.97.22,1.98-.1,3.72.01,7.48.09,11.17.11,1.47-.26,3.52.05,5.06.27,2.11-.07,4.3-.06,6.46-.18,3.01.01,6.06-.02,9.07.03,1.72-.25,3.69.94,5.09,2.98,2.68,5.66,4.6,7.01,8.55,1.24,1.69,2.45-.31,2.77-1.65.62-1.66,1.94-2.99,3.25-4.22,1.15-1.12,2.6-2.02,3.59-3.28.59-.82.31-1.37.37-2.29-.03-10.99.08-25.26-.12-34.22.09-3.67,3.77-1.39,5.22-2.84.49-.64.29-1.56.33-2.32.02-.87.2-1.89.09-2.77-.13-1.97-2.09-1.08-3.45-1.3-1.46-.11-2.25-.99-1.98-2.45.23-2.87.53-5.73,1.2-8.52,1.05-5.17,4.22-9.7,7.43-13.75,1.11-1.21,2.04-2.64,2.83-4.07.35-.51.86-.87,1.14-1.52.38-.92,1.04-2.2,1.52-3.51,0,0,0,0,0-.01.69-1.6.85-3.95.75-6.24.13-.4.1-.86-.07-1.2Z"/><path class="cls-1" d="M45.51,62.91c-.06-.97-.53-1.84-.4-2.96-.04-1.12-.5-2.21-.51-3.28-.29-.84-.25-1.86-.67-2.65-.52-1.12-.43-1.99-1.04-3.21-.32-.94-.55-1.83-1.18-2.48-.81-.53-1.66-.15-2.86,0-1.02.2-2.46.54-3.51.59-.44.07-1.03.29-1.44.3-.87-.06-1.49-.23-2.38-.28-.74-.17-1.6.05-2.33.06-.98,0-2-.18-2.95-.01-2.37-.27-4.8-.03-7.22-.24-1,.04-1.9.47-2.93.47-1.03.06-1.53-.36-2.38-.35-1.32-.03-2.67.5-4.02.27-.87-.3-1.59-.01-2.5-.07-.46-.06-.79-.12-1.2-.14-1.34.05-2.63-.32-3.87.38-.4.25-.84.47-1.22.76-.27.47-.38.79-.52,1.43-.08.6.13,1.1.16,1.51.14.68.19,1.36.22,2.08.09.33.09,1.14.08,1.58,0,.27.14.77.19,1.2.06.52-.04,1.16.11,1.59.12.6.33,1.59.24,2.27-.19.5.05,1.22.07,1.68.09,1.03-.28,2.13-.08,3.16.05,1.62-.12,3.15-.42,4.68.02.43.13,1.19.05,1.64-.04.89-.06,2.21-.07,3.16-.01.68.38,1.61.46,2.34-.08,1.26-.48,2.37-.26,3.68.02.54-.17.96-.15,1.5.12.71-.02,1.47-.2,2.12-.04,1.35-.23,2.75.02,4.16.18,1.41.08,2.76-.02,4.16.29,1.54.29,2.94.23,4.52,0,.63-.22,1.02-.22,1.73.08,1.29.51,3.04.32,4.28.11,1.71-.14,3.41-.08,5.1.2,1.11-.03,2.16-.22,3.24-.01,1.19-.17,2.33-.33,3.48.04,1.31,0,2.37-.38,3.65-.32.89.04,2.13.75,2.75.69.48,1,1.25,1.63,1.85,2.69,2.4,5.12,4.26,6.47,7.68.17.48.57,1.09,1.05,1.18.96.14,1.54-1.06,1.82-1.85.96-2.91,3.66-4.85,5.91-6.76.36-.32.96-.13,1.37-.51.94-1.04.73-2.22.4-3.45-.15-1.28.25-2.78-.08-3.98-.2-.82-.33-1.56-.25-2.31,0-.55-.26-1.18-.31-1.78.06-1.15.06-2.31.02-3.45.05-.78.24-1.72-.19-2.51-.4-.91.08-1.57.19-2.58-.1-1.21-.28-3.47-.01-4.69.2-.95.11-2.05.16-2.99-.12-.54-.17-1.5.64-1.5.78.11,1.56.04,2.34-.24.51-.08,1.03.01,1.51-.16,1.19-.47,2.78,0,3.94-.07.6-.07,1.33-.02,1.83,0,.63-.06,1.12.05,1.77.08.48-.02,1.05-.14,1.41-.1,1.23.05,2.29.56,3.45,1,.64.11.97.36,1.48.5.21.03.22-.01.65.1.48.22.95.48,1.53.61.64.08,1.4,0,2-.1.29-.12.36-.47.48-.79.36-.84.69-1.69,1.12-2.53.29-.66.14-2,.16-2.69.28-1.63.39-3.27.48-4.93.3-.89.11-1.5.11-2.43.02-.4.16-.71.1-1.03-.19-.75-.76-1.42-1.33-1.99-.89-.4-2.09-.8-3.04-.52-.97.26-1.95-.1-2.93-.11-1.6.02-3.15.26-4.64-.02-1.13.02-1.9.22-3.05.11-.32,0-.42.07-.78.11.03.04-.74-.02-.66-.05-.13-.04-.25-.08-.39-.09-1.51.16-3.14-.13-4.67-.03-.91-.13-1.94.06-2.83-.19-.41-.29-.71-.68-1.15-1.02-.56-.54-.19-1.27-.32-2.17.02-1.91,0-3.6-.13-5.56-.13-.71,0-1.48-.16-2.2-.2-.84-.17-1.83.24-2.56.19-.37.33-.79.5-.95.51-.32,1.09-.37,1.74-.47.27-.04.81-.1,1.2-.11.24.03.55.07.79.1.91-.04,2.05-.23,2.93.15,1.03-.03,2.08-.14,3.06.05,2.04.23,4.43-.41,6.36.28.64.23,1.21.04,1.91.32,1.15.39,2.18.51,3.29.9,1.19.38,2.39.27,3.65.07,2.35-.03,1.86-1.67,1.83-3.34v-.14Z"/><path class="cls-1" d="M99.42,67.89l-.07-.07c-.23-.33-.38-1.1-.71-1.27-.66-.51-1.51-.58-2.37-.54-1.69-.14-3.02.18-4.71.15-.79-.06-1.71-.3-2.61-.23-.51.05-.73.14-1.14.13-1.26-.1-2.39-.33-3.75.09-.57-.01-1.04.08-1.39.55-.4.46-.48,1.12-.46,1.72,0,1.35-.14,2.59.16,3.86.13,1.73.25,3.43.52,5.2.41,2.33-.19,4.68-.38,6.97-.3,1.27.17,2.58.05,3.9.01,2.09.28,4.2.25,6.3-.09,2.2-.21,4.5-.24,6.63.16.8.04,1.43-.07,2.21-.1.49.05,1.1-.2,1.56-.9,1.59-2.07,2.3-3.42,3.38-.92.98-2.66,1.24-3.93,1.45-1.71-.4-4.13-1.45-4.39-3.44.07-.67-.44-1.35-.37-2.07.07-.64.05-1.17-.03-1.8-.08-1.04.03-2.24.09-3.28.59-1.52-.37-3.11-.19-4.63.1-2.28-.44-4.41-.16-6.68-.05-2.84-.7-5.76-.53-8.52.13-.51.07-1,.02-1.53-.06-.66.09-1.05.17-1.69.01-1.59.21-2.95.12-4.52-.11-1.05.28-1.87.18-2.96-.02-.71-.25-1.19-.28-1.87.03-.26-.1-.54-.25-.75-.88-.54-2.02-.4-3-.43-.93-.27-1.67,0-2.62.12-1.49-.13-2.9-.09-4.35-.16-1.51.04-2.77-.19-4.3-.09-.81-.05-1.87.05-2.57.48-.68.33-1.11.39-1.13,1.33-.22,1.01.25,1.78.19,2.77.09.87-.06,1.68.25,2.48.45,2.7.85,5.95,1.18,8.6.31,1.7.15,3.19.45,4.84-.01.72-.21,1.32-.26,2.08.02,1.28.19,2.49-.03,3.82-.13,1.24-.02,2.68.14,3.94.03.62-.08,1.49.16,2.11.05.25,0,.51-.05.75-.09.43-.02,1.12-.06,1.59-.16.99-.2,2.1-.1,3.16,0,1.64-.43,3.06-.42,4.72-.24,1.11-.07,2.28.43,3.33.39,1,.64,1.44,1.45,2.41.26.32.4.79.58,1.1.38.54.9.9,1.28,1.42.34.73,1.04,1.39,1.5,2.04.56.79,1.62,1.96,2.5,2.54.68.73,1.27,1.54,2.15,2.02.86.8,1.98,1.07,3.02,1.31.99.37,1.69.73,2.87.82.38.07.75.03,1.08-.1.65.02,1.36-.21,1.93-.44,1.48-.12,2.48-1.11,3.79-1.71.33-.13.7-.26,1.01-.43.49-.33.77-.76,1.3-1.02.4-.2.88-.69,1.35-1,.53-.28,1.07-.46,1.53-.88.87-.63,1.51-1.2,2.42-1.97.61-.37.21.62.23,1.01-.12.68,0,1.37-.08,2.07-.05.38-.17.89-.19,1.3.01.42.29.88.32,1.35.09.68-.05,1.4-.04,2.1.25,1.9.22,3.7-.05,5.62.25,2.36-.12,4.35-1.47,6.42-.32.8-.45,1.41-1.09,2.02-.53.43-1.2.97-1.8,1.61-1.33,1.63-3.12,2-4.52,3.3-.49.49-.73.77-.74,1.24.1,1,.45,1.91,1.1,2.84.42.54.58,1.05.92,1.5.33.44.8.91.99,1.31.33.63.88,1.2,1.04,1.92.08.3.23.68.42.91.89.73,1.68,1.61,2.88,1.93,1.03.29,2.08.03,3.02-.27,1.32-.84,3.19-2,4.23-3.25.41-.91,1.61-1.82,2.23-2.47.54-.64,1.04-1.27,1.73-1.75.32-.45,1.21-1.04,1.54-1.56.9-1.56,2.12-2.87,3.23-4.26,2.07-2.92,2.71-6.66,2.43-10.13.01-2.53.06-5.12.05-7.7-.15-2.78,0-5.72-.14-8.46-.25-2.53.04-5.26-.16-7.82-.31-2.8.43-5.91-.07-8.71.05-.97.1-1.78-.09-2.78.15-2.1.14-4.1.12-6.26.06-1.4.37-2.67.23-4.1-.17-.82-.4-1.57-.37-2.31.05-1.12-.15-1.9-.2-3.08.07-2.1.51-4.19.47-6.29.59-2.14.19-4.35.41-6.44.08-.35-.01-.5-.17-.6Z"/><path class="cls-1" d="M145.42,77.2c-.2-.55-.56-1.46-.49-2.06v-.13c.11-.5-.03-1.15-.11-1.67-.11-.42.04-.84-.04-1.23-.24-.82-.53-1.96-.57-2.85-.1-.87-.27-1.91-.9-2.57-.34-.37-.9-1.46-1.68-1.14-.99.25-1.97-.17-3.09.04-.99.3-1.58.28-2.62.48-.66.33-1.59.47-2.34.61-.78.22-.76.26-1.63.58-1.97.89-3.42,2.58-4.95,4.14-.53.48-1.05.95-1.42,1.59-.09.15-.18.29-.32.39-.35.27-.28.5-.53.69-.78.68-1.12,1.48-2.02,2.16-.66.61-.78.33-.69-.58.22-1.3-.04-2.67.44-3.92.15-.31.13-.72.21-1.09.23-.55.36-.75.36-1.33.12-.73.45-1.63.02-2.33-.09-.22-.09-.51-.22-.65-.22-.21-.43-.29-.56-.53-.19-.22-.68-.65-1.05-.79-.35-.15-1.02.07-1.52.13-2.24-.12-4.62-.43-6.82.17-1.03.02-2.03-.15-3.13-.03-.62-.13-1.04-.02-1.64.21-.69.3-1.39.88-1.68,1.68.03.31-.02.59-.14.88-.22.66-.42,1.07-.25,1.7.19.65.46,1.18.37,1.66-.08.46.08.78.11,1.13.04.54.04,1.42.23,1.96.15.94.17,1.78.2,2.73-.08.91.13,1.88-.24,2.77-.08.37.11.96.13,1.34-.12.64.17,1.56.27,2.2-.1,1.01,0,2.34-.18,3.38.01.76.11,1.36.13,2.18.05.67-.16,1.21-.23,1.84.11.85.09,1.54.05,2.5-.02,1.84.15,3.74.1,5.57.05,1.19-.1,2.21-.04,3.33.02,1.14-.08,2.38-.02,3.49-.17.99-.12,1.86-.08,2.82-.02.79-.17,1.26-.25,2.06.09,1.2-.17,2.43-.12,3.59.08,2.24-.41,4.49-.31,6.67.08.51.17,1.17.59,1.63.06.13.15.42.23.67.21.47.25.35.44.48.76.35,1.66.58,2.51.63.76-.14,1.8-.38,2.71-.36,1.24,0,2.08-.09,3.27.14.33.02.63-.05.95-.09.79-.17,1.34.18,2.04.23.6-.11,1.05-.5,1.62-.74.45-.18,1.15-.5,1.4-.83.36-.68.78-1.85.83-2.72.11-.69-.24-1.42-.4-2.06-.04-1.11-.36-2.18-.38-3.31-.29-3.21-.12-6.48-.26-9.68.07-.64,0-.68-.1-1.44-.11-1.13.04-2.28-.2-3.39,0-.62.07-1.46.21-1.98.08-.4-.06-.43-.09-1.02.14-.7.29-2,.28-2.82.16-.46.3-.5.46-1.11.22-.45.54-.83.76-1.25.33-.57.52-1.34.98-1.78.78-.64,1.5-1.32,2.28-2.08.91-.83,1.83-1.48,2.8-2.29.36-.53,1.06-.68,1.56-1.08.34-.26.55-.27.9-.42.62-.31,1.06-.57,1.7-.78,1.89-.66,3.81-1.65,5.84-2.02,1.61-.54,3.45-.99,5.09-.29.19,0,.67-.11.97-.38.52-1.05.24-2.5.29-3.62Z"/><path class="cls-1" d="M197.09,86.58c-.12-.93-.32-2.02-.51-2.97-.19-1.09-.36-2.38-.83-3.41-.16-1.18-.83-2.01-1.2-3.12-.29-.85-.54-1.45-1.04-2.19-.61-1.11-1.22-1.88-2-2.9-.68-.53-1.16-1.2-1.67-1.95-.32-.47-.86-.53-1.26-.94-.77-.74-1.6-1.26-2.7-1.77-1.18-.44-1.98-1.21-3.24-1.53-1.37-.69-2.63-1.26-4.02-1.78-.82-.18-1.49-.05-2.31-.13-1.34-.39-2.35-.18-3.76-.13-.64.02-1.08.27-1.74.4-1.36.16-1.75.47-2.89.76-1.35.07-2.63.51-3.95.89-.55.24-.99.74-1.53.97-.44.26-.36.18-1,.49-.7.24-1.23.38-1.74.92-.96.64-2.59,1.24-3.29,2.02-.29.32-.83.65-1,.92-.14.25-.32.63-.51.88-.33.32-.72.5-1.02.89-.28.43-.41.74-.71,1.08-.28.62-.72.98-1.23,1.39-.57.46-.71,1.33-1.13,1.79-.31.37-.45.67-.59,1.04-1,1.9-1.8,4.05-2.13,6.3-.22.89-.61,1.78-.55,2.74-.26,1.17-.58,2.52-.59,3.79-.16,1.27-.3,2.75-.38,4.19.07.6.19.78.1,1.33-.1.87.32,1.96.39,2.97.08.68.06,1.54.14,2.2.1.37.36.62.49.97.19.39.23,1.16.33,1.63.1.42.33.59.47.93.54,1.6,1.62,3.2,2.63,4.59.64,1.17,1.2,2.53,2.11,3.45.42,1.06,1.38,1.79,2.07,2.67,1.15,1.33,2.08,2.83,3.45,3.86.9.35,1.49,1.2,2.34,1.67.5.16.94.5,1.44.67.5.15,1.18.38,1.67.64,1.07.59,2.23.77,3.34,1.23.45.17.95.21,1.49.21.79.1,2.08.49,2.87.58.33.09.49.01.93-.04.69-.08.92.1,1.42.18,1.11.26,2.14-.23,3.22-.44,1.33-.12,2.65-.33,3.94-.7.81-.26,1.71-.43,2.56-.55.81-.27,1.03-.52,1.9-.8.53-.22,1.11-.6,1.61-.74.46-.22.59-.07,1.12-.52.27-.41.62-.38,1.03-.62.46-.54,1.22-.88,1.78-1.2.39-.25.57-.07,1.06-.48.46-.35.98-.61,1.23-1.17.25-.54.3-1.13.36-1.72.2-2.41.21-5.14,1.69-7.16.6-.77,1.01-2.4-.46-2.32-.87.11-1.64.36-2.42.38-2.32.16-4.33-.45-6.68-.93-.73-.15-1.51.12-2.11.4-.57.3-1.11.7-1.57,1.15-.3.39-.55.79-1.18,1.09-1.14.4-1.97,1.19-3.15,1.47-2.32.96-4.8.51-7.15.07-1.17-.57-2.39-1.25-3.45-1.95-.91-1.02-2.2-1.89-2.91-3.1-.81-1.01-.89-1.87-1.7-2.88-.59-.85-.64-1.49-1.06-2.35-.32-1.29-.47-2.7-.56-4.02-.19-.62-.34-1.54-.33-2.06-.02-.37.15-.98.34-1.28.08-.1.15-.09.23.03.2.47.48.93.84,1.34.46.54.49.91.82,1.34.18.22.47.79.7,1.15.51.63,1.1,1.37,1.59,2.04.54.71,1.04,1.36,1.65,2.01.44.38.87.4,1.24.68.99.58,2.21.25,3.22-.15,1.29-.5,2.62-.62,3.82-1.2.18-.11.83-.28,1.04-.28,1.81-.05,3.39-.73,4.95-1.33,2.54-.97,5.13-1.95,7.87-2.14,1.15-.39,2.39-.67,3.49-1.19.19-.04.17.02.6-.08.24-.08.43-.28.69-.34.92-.19,1.66-.69,2.51-1.1.57-.46.51-1.1.63-1.78.17-1.59.32-3.37-.12-4.83l-.03-.13ZM179.51,84.06l-.1.09c-.81.71-2.21.91-3.22,1.09-.63.23-1.4.44-2.09.41-.59.1-1.26.3-1.92.5-.58.3-1.25.14-1.8.35-.88.27-1.36.45-2.2.75-.92.18-1.69.16-2.46.67-.31.17-.69.13-1.06.18-.73.23-1.55.41-2.3.64-.37-.25.08-.69.13-.93.16-.67.72-1.34,1.12-1.96.26-.45.4-.44.65-.76.44-.47.68-.84,1.09-1.4.84-1.06,1.73-2.09,2.64-3.14.53-.24,1.23-.65,1.8-1.02.27-.17.68-.03.97-.09.32-.07.63-.22.9-.27.66-.09,1.62-.16,2.33-.07.7.19,1.48-.09,2.05.43.3.23.65.25,1.01.42.66.57.98.55,1.45,1.32.14.19.37.31.54.51.22.33.24.7.42,1.04.13.27.44.5.36.78-.02.11-.23.35-.3.44Z"/><path class="cls-1" d="M230.12,107.21c-.07-1.33-.39-2.68-.62-4-.11-.72-.15-1.45-.55-2.11-.27-.75-.69-1.33-.97-2.02-.14-.54-.64-1.11-.9-1.55-.19-.48-.45-1.02-.83-1.47-.71-.52-.81-1.16-1.54-1.87-.29-.24-.44-.6-.66-.88-.9-.69-1.01-1.43-1.84-2.27-.51-1.38-1.39-2.4-2.45-3.38-.4-.34-.7-.58-1.05-1.02-.33-.45-.2-.88-.4-1.37-.2-.44-.65-.89-.69-1.41.07-.6.46-1.4.6-2.3.39-.74,1-1.46,1.52-2.13.34-.44.91-.94,1.35-1.14.24-.11.56-.14.8-.32.36-.3.9-.69,1.28-.85.78-.36,1.28-.97,2.1-1.27.67-.27,1.08-.52,1.6-.99.05.03.52-.6.41-.6.03-.23-.02-.49-.1-.7-.5-.98-1.24-1.92-1.73-2.87-.93-1.41-1.9-2.89-2.67-4.3-.17-.2-.42-.29-.55-.53-.21-.36-.47-.42-.64-.71-.16-.25-.34-.55-.49-.8-.15-.23-.38-1.16-.59-1.3-.17-.08-.61-.02-.78-.09-.44-.17-.72-.08-1.4-.06-.56.01-1.36.17-1.84.54-1.13.41-2.72,1.2-3.72,1.7-.67.57-1.57,1.34-2.49,1.62-.61.54-1.2.83-1.98,1.33-.18.15-.39.61-.58.86-.18.24-.45.32-.68.53-.46.42-.62.86-1.05,1.33-.21.24-.47.54-.7.64-.19.09-.33.07-.46.23-.22.28-.38.69-.51.92-.54,1.1-1.27,2.16-2.09,3.13-.56.65-.73,1.42-1.15,2.11-.17.45-.08,1.07-.18,1.66-.16.53-.34,1.04-.32,1.62,0,.75.27,1.11.18,1.82.18.71.3,1.46.35,2.2.4.92,1.27,2.49,1.47,3.64.71.99.94,2.26,1.64,3.2.65.65.8,1.39,1.23,2.12.29.47.28,1.16.6,1.62.73.64,1.09,1.35,1.9,2.04.64.62.93,1.46,1.58,2.06.47.55,1.26,1.19,1.55,1.82.23.4.43.64.83,1.16.39.56.66,1.18,1.07,1.74.2.66.27,1.41.28,2.02-.01.39-.03.97-.15,1.47-.13.41-.34.43-.5.83-.15.32-.21.52-.39.67-.42.44-1,.89-1.39,1.3-.47.7-.94.87-1.7,1.22-.41.46-.89.68-1.39,1.03-.58.27-.67.38-1.15.78-.53.32-.91.57-1.55.96-.05.05-.15.15-.2.19-.04.09,0,.19.01.32.03.16.01.45.09.69.23.56.9,1.35.92,1.84.2.44.14.49.49,1.06.55.48.77,1.03,1.15,1.61.41.51.83,1.15,1.36,1.84.48.7.99,1.39,1.55,2,.21.21.32.58.47.85.12.23.4.3.58.47.49.31.88.95,1.46,1.05.34.04.71-.04,1.09-.07.45-.22,1-.3,1.49-.48.39-.21.55-.47.91-.74,1.7-1.16,2.9-2.17,4.33-3.6.24-.21.62-.46.86-.67.41-.45.83-1.04,1.23-1.49.48-.51.98-1.07,1.56-1.46.53-.68,1.12-1.52,1.6-2.21.12-.15.48-.39.69-.65.21-.27.23-.37.44-.55.62-.61,1.09-1.27,1.54-2.02.09-.14.35-.67.53-.98.33-.51.27-1.05.65-1.55.36-.63.3-1.16.24-1.84.02-.32.05-.79.04-1.08v-.14Z"/><path class="cls-1" d="M324.39,77.2c-.2-.55-.56-1.46-.49-2.06v-.13c.11-.5-.03-1.15-.11-1.67-.11-.42.04-.84-.04-1.23-.24-.82-.53-1.96-.57-2.85-.11-.87-.27-1.9-.9-2.57-.34-.37-.9-1.46-1.68-1.14-.99.25-1.97-.17-3.09.04-.99.3-1.58.28-2.62.48-.66.33-1.59.47-2.34.61-.78.22-.76.26-1.63.58-1.97.89-3.42,2.58-4.95,4.14-.53.48-1.05.95-1.41,1.59-.09.15-.18.29-.32.39-.35.27-.28.5-.53.69-.78.68-1.12,1.48-2.02,2.16-.66.61-.78.33-.69-.58.22-1.3-.04-2.67.44-3.92.15-.31.13-.72.21-1.09.23-.55.36-.75.36-1.33.12-.73.45-1.63.02-2.33-.09-.22-.09-.51-.22-.65-.22-.21-.43-.29-.56-.53-.19-.22-.68-.65-1.05-.79-.35-.15-1.02.07-1.52.13-2.24-.12-4.62-.43-6.82.17-1.03.02-2.03-.15-3.13-.03-.62-.13-1.04-.02-1.64.21-.69.31-1.39.88-1.68,1.68.03.31-.02.59-.14.88-.22.66-.42,1.07-.25,1.7.19.65.46,1.18.37,1.66-.08.46.08.78.11,1.13.04.54.04,1.42.23,1.96.15.94.17,1.78.2,2.73-.08.91.13,1.88-.24,2.77-.08.37.11.96.13,1.34-.12.64.17,1.56.27,2.2-.1,1.01,0,2.34-.18,3.38.01.76.11,1.36.13,2.18.04.67-.16,1.21-.23,1.84.11.85.09,1.54.05,2.5-.02,1.84.15,3.74.1,5.57.05,1.19-.1,2.21-.04,3.33.02,1.14-.08,2.38-.02,3.49-.17.99-.12,1.86-.08,2.82-.02.79-.17,1.26-.25,2.06.09,1.2-.17,2.43-.12,3.59.08,2.24-.41,4.49-.31,6.67.08.51.17,1.17.59,1.63.06.13.15.42.23.67.21.47.25.35.44.48.76.35,1.66.58,2.51.63.76-.14,1.8-.38,2.71-.36,1.24,0,2.08-.09,3.27.14.33.02.63-.05.95-.09.79-.17,1.34.18,2.04.23.6-.11,1.05-.5,1.62-.74.45-.18,1.15-.5,1.4-.83.36-.68.78-1.85.83-2.72.11-.69-.24-1.43-.4-2.06-.04-1.11-.36-2.18-.38-3.31-.29-3.21-.12-6.48-.26-9.68.07-.64,0-.68-.1-1.44-.11-1.13.04-2.28-.2-3.39,0-.62.07-1.46.21-1.98.08-.4-.06-.43-.09-1.02.14-.7.29-2,.28-2.82.16-.46.3-.5.46-1.11.22-.45.54-.83.76-1.25.33-.57.53-1.34.98-1.78.78-.64,1.5-1.32,2.28-2.08.91-.83,1.83-1.48,2.8-2.29.36-.53,1.06-.68,1.56-1.08.34-.26.55-.27.9-.42.62-.31,1.06-.57,1.7-.78,1.89-.66,3.81-1.65,5.84-2.02,1.61-.54,3.45-.99,5.09-.29.19,0,.67-.11.97-.38.52-1.05.24-2.5.29-3.62Z"/><path class="cls-1" d="M347.21,119.37c-.38-1.72-.55-3.64-.88-5.51-.19-.97-.04-1.85-.14-2.85-.11-.51-.07-1.02-.05-1.51-.55-1.12-.39-2.33-.44-3.64-.03-.82-.3-2.2-.24-2.88,0-.6-.29-1.46-.3-2.11.39-2.92-.26-5.64.03-8.63.38-2.58.31-5.06.51-7.72-.29-1.35-.08-2.67.08-4.02.09-1.34.09-2.67-.01-3.96.09-.94-.13-1.94-.04-2.86-.25-.9-.33-1.68-.29-2.6.06-.47-.03-1.1-.08-1.59.06-.8-.01-1.55-.4-2.27-.14-.23-.08-.31-.43-.66-.69-.32-1-.5-1.79-.71-.43-.21-.86-.09-1.33-.07-.4-.08-1.03.1-1.4.11-1.71-.17-3.33.01-5.04.07-1.06-.23-1.97.08-3.02.23-.84-.15-1.8.23-2.43.73-.78.86-.33,2.44-.37,3.52-.11.84-.09,1.66.02,2.5.01.37.21.82.26,1.31,0,.53-.05.74,0,1.13.08.79.27,1.6.47,2.35.17,1.15.33,2.31.42,3.47.02.73.05,1.33.23,2.01-.04.8.05,1.57.12,2.41.05,1.13-.01,2.52.15,3.65.01.43-.25,1.02-.16,1.48.08.48-.03,1-.09,1.39-.02.51.12,1.18.19,1.68.13,1.38.15,3.04.6,4.3.18.49-.13,1.13-.21,1.63-.06,1.45,0,3.04.33,4.43.13,2.16.1,4.59-.23,6.77-.04.39-.04.35-.02.67.16,1.11-.09,2.47-.2,3.61-.02.62-.38,1.15-.46,1.79-.05.34.01.63-.02.98-.25,1.52-.28,3.19.13,4.65.27.43.83.81,1.34,1.27,2.33,2.05,4.39,3.78,5.56,6.82.15.37.46.85.83.94.81.25,1.43-.79,1.7-1.47.49-1.78,1.74-3.12,3.06-4.36,1.35-1.41,3.25-2.34,4.26-4.02.22-.8-.06-1.41-.16-2.27l-.04-.19Z"/><path class="cls-1" d="M406.99,94.7v-.12c-.03-.48.07-1.09.09-1.62.03-.44-.18-1.29-.19-1.64-.09-.56-.41-1.26-.48-1.79-.02-.74-.1-1.35-.23-2.07-.02-.5.11-.89-.04-1.41-.09-.34-.23-.54-.29-.78-.28-.87-.58-1.94-.91-2.78-.26-1.1-.58-2.41-1.09-3.39-.23-.49-.31-.52-.73-1.09-.34-.6-.58-1.21-.93-1.72-.56-1.07-.89-1.83-1.52-2.47-.33-.72-1.09-1.26-1.57-1.8-.36-.61-.92-1.36-1.4-1.99-.99-1-2.17-2.23-3.59-2.55-1.39-.9-3.23-1.86-4.96-1.98-2.86.1-5.21-.19-7.95.43-.81.03-1.36.46-2.11.59-.53.27-1.43.67-2.07.82-.82.52-1.91,1.16-2.67,1.81-.57.4-1.07.66-1.5,1.16-.24.24-.49.45-.76.66-.17.11-.22.24-.49.23-.16-.11-.1-.76-.15-1.14-.12-1.01,0-2.13.17-3.1.13-2.06.13-4.04.35-6.02-.05-1.38,0-2.81.26-4.17.31-1.96.52-3.39.27-5.28.09-.65-.04-1.28-.12-1.95.03-.73,0-1.36-.27-2.05-.09-.36-.25-.71-.44-.99-.28-.46-.42-.99-1.03-1.14-1.08-.12-2.17-.32-3.27-.22-2.25.03-4.33-.31-6.5-.18-.57.11-.95-.1-1.5-.07.03-.03-.8.08-.72.08-.07.01-.21.04-.29.05-1.95-.14-3.89.3-4.93,2.04-.1.53-.02.84-.06,1.43-.05.42-.02,1.15.1,1.69.25,1.73.33,3.01.91,4.75.42,1.3.16,2.44.42,3.79.13.83.22,1.48.43,2.27-.03,1.55.13,2.98.17,4.46-.06,1.17-.19,2.67.1,3.85-.09.9.04,1.75.1,2.65-.2,2.08-.18,4.43-.05,6.49.02,3.26-.31,6.61.38,9.8.03,1.88-.02,4.12-.03,6.06.16.98.07,1.86.06,2.86,0,.97,0,2.02,0,2.97.26,1.27.3,2.29.39,3.61.07,1.33-.39,2.53-.22,3.82-.15.89-.28,1.41-.13,2.23.02.82-.46,1.8-.48,2.41-.28,1.43-.38,2.77-.44,4.22-.05,1.15-.41,1.47-.41,2.59.19,1.17-.37,2.43.18,3.54.55,1.26,2.02,1.53,3.28,1.64,1.46-.09,2.41.09,3.98-.08,1.82.25,3.48-.62,5.31-.52.93.03,2-.04,2.89.02.59.03.73-.1,1.27-.32.23-.12.28-.07.66-.39.29-.33.21-.89.23-1.23.04-.49.06-2.19.85-1.21.51.87,1.44,1.35,2.16,2.02,1.44,1.1,2.62,1.03,4.29,1.43.78.25,1.55.27,2.34.33,1.43.28,2.9.35,4.31-.06,2.05-.49,3.69-1.35,5.49-2.33.68-.23,1.23-.54,1.81-.97,2.2-1.07,4.39-2.57,6.09-4.31.92-.9,1.51-1.56,2.33-2.54.35-.75.68-1.37,1.09-2.08.17-.74,1.09-1.67,1.35-2.47.14-.73.21-.66.5-1.45.49-1.67.98-3.31,1.31-5.05.26-1.29.08-2.27.53-3.61.17-.53.06-.98.03-1.54,0-.48.16-.86.2-1.3.05-.62-.13-1.49-.16-1.83ZM392.11,93.99l-.02.13c-.07.59.03,1.28-.08,1.92.11,1.22.13,2.56-.43,3.67-.07.2-.16.2-.23.65.02.31.03.59-.13.82-.1.19-.3.51-.49.86-.36.64-.6,1.23-.67,1.96-.51,1.16-1.6,2.43-2.72,2.99-.67.37-.95.49-1.61,1.2.04.02-.66.52-.64.44-.08.03-.25.1-.34.13-.8.38-1.65.87-2.43,1.17-1.01-.1-2.19.04-3.18-.1-.7.2-1.63.28-2.29-.14-1.85-.88-3.84-2.1-4.73-4.02-.2-.43-.04-.74-.12-1.1-.09-.38-.29-.49-.27-.87,0-.31.03-.69.05-1,.18-1.23-.32-2.59-.27-3.82-.25-2,.24-4.05.14-6.06-.2-.92-.07-2.07-.15-2.96.03-1.21-.08-2.5.71-3.52,1.62-1.49,2.54-2.45,4.29-3.84.73-.63,1.2-.69,1.96-1.28.77-.46,1.29-.54,2.03-.96.84-.31,1.75-.7,2.61-.88.55.15,1.24-.02,1.77.05.5.32,1.39.43,1.84.61.86.4,1.64,1.15,2.27,1.88.51.85.68,1.49,1.16,2.31.36.58.42,1.1.6,1.74.36.95.82,1.74.86,2.8-.01,1.03.27,2,.48,2.97-.07.72.18,1.57,0,2.27Z"/><path class="cls-1" d="M461.2,87.2c-.31-1.02-.43-2.44-.67-3.43-.24-1.31-.33-2.35-.86-3.57-.27-1.47-1.1-2.53-1.5-3.95-.9-1.86-2.06-3.64-3.56-5.07-.29-.32-.66-.96-.95-1.28-.57-.44-1.23-.8-1.8-1.37-.82-.68-2.07-1.15-3.12-1.72-.5-.3-.93-.57-1.39-.74-1.67-.6-3.15-1.5-4.8-2.05-.82-.18-1.49-.05-2.31-.13-.7-.11-1.3-.33-1.99-.26-.65.09-1.4.12-2.16.15-1.18.42-2.57.43-3.69,1-.46.2-.97.12-1.41.19-.95.32-2.13.47-3.1.83-.64.32-1.17.85-1.82,1.12-.29.21-1.23.54-1.68.67-.5.33-.89.73-1.49.98-.81.58-1.86.82-2.56,1.61-.29.32-.83.65-1,.92-.14.25-.32.63-.51.88-.33.32-.72.5-1.02.89-.28.43-.41.74-.71,1.08-.28.62-.72.98-1.23,1.39-.57.46-.71,1.33-1.13,1.79-1.38,2.22-2.28,4.67-2.72,7.34-.22.89-.61,1.78-.55,2.74-.63,2.6-.75,5.2-.97,7.98.22.95.06,1.1.11,2.13.09.79.35,1.31.39,2.17.08.68.06,1.54.14,2.2.5.94.7,1.49.81,2.61.38.86.58,1.09.92,2.14.38.62.76,1.22,1.1,1.86.32.49.74,1.05,1.08,1.53.51.98.97,1.93,1.56,2.82.68.67.77,1.37,1.41,1.93.4.48.8.87,1.2,1.36,1.15,1.33,2.08,2.83,3.44,3.86.9.35,1.49,1.2,2.34,1.67.81.35,1.53.76,2.42,1,.54.21,1.13.55,1.63.75.71.22,1.53.45,2.23.73.65.33,1.67.18,2.31.37.28.09.76.21,1.17.29.39.07,1.01.18,1.3.23.38-.03,1.25-.17,1.57-.03,1.31.48,2.61-.09,3.92-.34.96-.07,1.9-.21,2.83-.43,1.2-.33,2.47-.64,3.68-.84,1.15-.48,2.57-1.24,3.81-1.65.21-.09.25-.04.63-.36.16-.16.26-.31.43-.38.45-.08.81-.39,1.13-.74.51-.36,1.24-.59,1.66-1.03.55-.68,1.15-1.62,1.27-2.51.09-.7-.21-1.07-.38-1.56-.25-1.09-1.11-1.87-1.84-2.65-.49-.62-.98-1.23-1.3-1.97-.2-.32-.45-.44-.71-.83-.73-1.4-1.84-2.64-3.25-3.35-.74-.1-1.71.17-2.24.69-.62.29-1.06,1.02-1.52,1.44-.28.25-.74.44-1.13.58-.71.34-1.05.62-1.69.93-1.35.44-2.8,1.09-4.21.83-1.24-.09-2.59-.17-3.78-.47-1.17-.57-2.39-1.25-3.45-1.95-1.47-1.46-3.15-2.86-3.91-4.86-.2-.56-1.09-1.5-1.19-2.1-.49-1.03-.81-2.21-.92-3.35-.14-.79-.08-1.74-.32-2.51-.19-1.09-.44-1.91.21-2.91.18-.05.32.6.55.87.37.5.84,1.06,1.07,1.64.9,1.5,2.03,2.95,3.14,4.32.31.35.52.69.83,1.03.41.45.88.5,1.24.73,1.01.69,2.3.36,3.36-.06,1.18-.46,2.41-.61,3.52-1.07.19-.08.82-.37,1.01-.37.8-.14,1.56-.12,2.38-.3,1.1-.32,1.96-.78,2.89-1.07,2.42-.9,4.89-1.89,7.51-2.09.63-.05,1.25-.39,1.87-.5.66-.16,1.38-.47,2-.74.19-.04.17.02.6-.08.24-.08.43-.28.69-.34.89-.21,1.9-.73,2.67-1.23.86-1.66.63-4.18.53-5.84l-.03-.13ZM443.43,84.06l-.1.09c-.81.71-2.21.91-3.22,1.09-.63.23-1.4.44-2.09.41-.59.1-1.26.3-1.92.5-.58.3-1.25.14-1.8.35-.88.27-1.36.45-2.2.75-.92.18-1.7.16-2.46.67-.31.17-.69.13-1.06.18-.73.23-1.55.41-2.3.64-.37-.25.08-.69.13-.93.16-.67.72-1.34,1.12-1.96.26-.45.4-.44.65-.76.44-.47.68-.84,1.09-1.4.84-1.06,1.73-2.09,2.64-3.14.53-.24,1.23-.65,1.8-1.02.27-.17.68-.03.97-.09.32-.07.63-.22.9-.27.66-.09,1.62-.16,2.33-.07.7.19,1.48-.09,2.05.43.3.23.65.25,1.01.42.66.57.98.55,1.45,1.32.14.19.36.31.54.51.22.33.24.7.42,1.04.13.27.44.5.36.78-.02.11-.23.35-.3.44Z"/><path class="cls-1" d="M330.72,52.1c.12,2.05,2.71,3.01,3.88,4.51,1.38,1.18,1.98,2.75,2.69,4.31,1.53,2.06,2.19-1.41,2.94-2.24,1.3-2,3.17-3.24,4.9-4.95.76-1.1,1.01-2.96.37-4.15-1.94-2.3-5.07-3.86-5.88-6.96-.22-.57-.7-1.38-1.33-1.36-1.11.23-1.23,2.02-1.88,2.71-1.26,1.97-2.94,3.21-4.74,4.82-.86.79-1.03,2.14-.97,3.21v.09Z"/><path class="cls-1" d="M279.57,74.51c-.66-.9-1.07-1.46-1.61-2.37-.55-.58-1.22-1.06-1.64-1.77-.26-.58-.99-1.02-1.54-1.43-1.02-.92-2.33-1.52-3.57-2.1-1.13-.74-2.12-.96-3.17-1.52-1.11-.65-2.32-1.02-3.53-1.45-1.62-.03-3.41-.39-5.08-.24-1.06-.07-1.94.42-2.98.51-.66.07-1.24.37-1.83.59-1.42.13-2.49.35-3.93.85-.63.1-1.12.58-1.57.85-.65.37-1.63.84-2.28,1.02-.47.16-.77.62-1.22.76-.75.34-1.5.73-2.19,1.19-.66.6-1.55,1.14-1.97,1.92-.1.19-.05.21-.37.61-.54.43-1.21.94-1.49,1.54-.37.61-.89,1.29-1.48,1.73-.44.51-.55,1.07-.99,1.62-.33.47-.49,1.07-.84,1.53-.41.67-.84,1.35-1.02,2.14-.17.7-.56,1.87-.79,2.62-.18.89-.31,1.67-.61,2.51-.19.58-.04,1.36-.26,1.91-.21.63-.16,1.17-.22,1.85-.15,1.4-.44,2.69-.57,4.12-.12.74-.13,1.54.02,2.23-.06.79-.09,1.66.2,2.46.32,1.1.25,2.27.34,3.35.09.46.41.73.56,1.2.18.44.18,1.15.28,1.56.2.53.52.82.67,1.41.18.77.62,1.18.96,1.83.56,1.14,1.25,1.76,1.87,2.92,1.65,3.15,4.12,5.85,6.39,8.53.19.21.46.53.7.67.31.19.49.12.78.33.25.18.53.42.75.64.58.8,1.44.97,2.32,1.38.57.33,1.27.59,1.93.74,1.7.88,3.71,1.4,5.63,1.54.89.05,1.86.65,2.81.4.74-.06,1.4.26,2.16.26.61,0,1.2-.22,1.78-.35,1.07-.34,3.13-.45,4.48-.82.87-.29,1.98-.48,2.9-.64.95-.41,2.06-.93,2.88-1.32,1.18-.51,2.34-1.09,3.3-1.92,1.16-.45,1.98-1.46,2.68-2.41l.04-.11c-.07-.37.05-.78.08-1.2-.04-.61-.28-.84-.47-1.45-.58-1.7-2.22-2.64-3.06-4.19-.85-1.19-2-2.47-2.8-3.6-.3-.33-.75-.47-1.15-.66-1.01-.45-1.85.23-2.66.77-.61.38-.92.93-1.47,1.37-.49.36-1.03.41-1.47.74-1.1.79-2.63,1.11-4,1.35-.75.17-2.04-.01-2.84-.05-.64-.13-1.45-.21-1.99-.3-1.43-.61-2.55-1.25-3.78-2.39-1.54-1.08-3.05-2.71-3.76-4.49-.22-.54-.59-.94-.93-1.45-.33-.67-.54-1.35-.77-2-.05-.7-.39-1.32-.54-2.02-.1-.47-.1-.42-.16-.63-.37-.96-.23-1.88-.18-2.86,0-.48-.11-.85-.06-1.22.04-.43.42-1.09.48-1.52-.04-.72.22-1.41.53-2.03.14-.95.35-1.94.88-2.78.26-.75,1.12-1.26,1.46-1.93.15-.25.34-.57.64-.9.4-.33.48-.42.9-.95.5-.51,1.31-1.93,1.92-2.33,1.32-.97,3.02-1.48,4.64-1.62.33-.06.61-.08.92-.04.73.18,1.68.1,2.37.35,1.68.66,3.05,1.92,4.03,3.41.35.77.69,1.39,1.22,2.06.52.33,1.31.75,1.98.59.79-.28,1.63-.64,2.34-1.06,1.19-.94,2.57-1.64,3.99-2.3,1.11-.61,2.29-1.66,3.39-2.18.68-.38,1.45-.77,1.96-1.43.24-.36.16-.75.05-1.05-.3-.86-.78-2.11-1.37-2.87Z"/></svg>